<svg width="63" height="35" viewBox="0 0 63 35" fill="none" xmlns="http://www.w3.org/2000/svg">
<path d="M40.1258 18.2683C39.6748 18.2683 39.4543 17.7182 39.7805 17.4067L54.8749 2.98997C55.3045 2.57963 55.9637 3.12741 55.6389 3.62488L49.2589 13.3974C49.0418 13.73 49.2804 14.1707 49.6776 14.1707H61.5228C62.001 14.1707 62.2064 14.7775 61.8265 15.0679L35.7568 35L51.4859 19.1202C51.7986 18.8045 51.575 18.2683 51.1307 18.2683H40.1258Z" fill="#FAFAFA"/>
<path d="M26.1089 1.08889C25.9733 0.759781 26.2152 0.398374 26.5712 0.398374H36.2671C36.6208 0.398374 36.8626 0.755549 36.7313 1.08397L31.9572 13.0269C31.7906 13.4438 31.2017 13.4469 31.0307 13.0319L26.1089 1.08889Z" fill="#FAFAFA"/>
<path d="M7.36109 3.62488C7.03632 3.12741 7.69549 2.57963 8.12511 2.98997L23.2195 17.4067C23.5457 17.7182 23.3252 18.2683 22.8742 18.2683H11.8693C11.425 18.2683 11.2014 18.8045 11.5141 19.1202L27.2432 35L1.17348 15.0679C0.793624 14.7775 0.999007 14.1707 1.47717 14.1707H13.3224C13.7196 14.1707 13.9582 13.73 13.7411 13.3974L7.36109 3.62488Z" fill="#FAFAFA"/>
</svg>
